<svg xmlns="http://www.w3.org/2000/svg" viewBox="0 0 180 180">
  <style>
    .logo { fill: #031334; }
    @media (prefers-color-scheme: dark) {
      .logo { fill: #FEF7E1; }
    }
  </style>
  <path class="logo" transform="matrix(0.2095,0,0,0.4030,-38.189,-263.244)" d="M253.902,813.5C253.902,753.778 348.177,705.364 464.47,705.364C580.763,705.364 675.037,753.778 675.037,813.5L675.037,931.841L524.568,931.841L524.568,899.818L404.371,899.818L404.371,1009C404.371,1030.324 370.66,1047.636 329.137,1047.636C287.614,1047.636 253.902,1030.324 253.902,1009L253.902,813.5ZM524.568,813.5C524.568,796.455 497.661,782.636 464.47,782.636C431.278,782.636 404.371,796.455 404.371,813.5L404.371,822.545L524.568,822.545L524.568,813.5ZM759.374,1047.636L599.803,1047.636C558.28,1047.636 524.568,1030.324 524.568,1009C524.568,987.676 558.28,970.364 599.803,970.364L759.374,970.364C792.565,970.364 819.472,956.545 819.472,939.5L819.472,782.636L784.097,782.636C742.574,782.636 708.863,765.324 708.863,744C708.863,722.676 742.574,705.364 784.097,705.364L894.706,705.364C936.257,705.364 969.941,722.662 969.941,744L969.941,939.5C969.941,999.222 875.667,1047.636 759.374,1047.636Z"/>
</svg>
