<?xml version="1.0" encoding="UTF-8" standalone="no"?>
<!DOCTYPE svg PUBLIC "-//W3C//DTD SVG 1.1//EN" "http://www.w3.org/Graphics/SVG/1.1/DTD/svg11.dtd">
<svg width="100%" height="100%" viewBox="0 0 180 180" version="1.1" xmlns="http://www.w3.org/2000/svg" xmlns:xlink="http://www.w3.org/1999/xlink" xml:space="preserve" xmlns:serif="http://www.serif.com/" style="fill-rule:evenodd;clip-rule:evenodd;stroke-linejoin:round;stroke-miterlimit:2;">
    <g transform="matrix(1,0,0,1,-4324.790502,-722.520329)">
        <g id="Icon-SVG---Dark" serif:id="Icon SVG - Dark" transform="matrix(1.178134,0,0,1.192463,-3594.390672,575.037922)">
            <rect x="6721.798" y="123.679" width="152.784" height="150.948" style="fill:none;"/>
            <g transform="matrix(0.170732,0,0,0.328461,6693.715321,-88.743017)">
                <path d="M253.902,813.5C253.902,753.778 348.177,705.364 464.47,705.364C580.763,705.364 675.037,753.778 675.037,813.5L675.037,931.841L524.568,931.841L524.568,899.818L404.371,899.818L404.371,1009C404.371,1030.324 370.66,1047.636 329.137,1047.636C287.614,1047.636 253.902,1030.324 253.902,1009L253.902,813.5ZM524.568,813.5C524.568,796.455 497.661,782.636 464.47,782.636C431.278,782.636 404.371,796.455 404.371,813.5L404.371,822.545L524.568,822.545L524.568,813.5ZM759.374,1047.636L599.803,1047.636C558.28,1047.636 524.568,1030.324 524.568,1009C524.568,987.676 558.28,970.364 599.803,970.364L759.374,970.364C792.565,970.364 819.472,956.545 819.472,939.5L819.472,782.636L784.097,782.636C742.574,782.636 708.863,765.324 708.863,744C708.863,722.676 742.574,705.364 784.097,705.364L894.706,705.364C936.257,705.364 969.941,722.662 969.941,744L969.941,939.5C969.941,999.222 875.667,1047.636 759.374,1047.636Z" style="fill:rgb(254,247,225);"/>
            </g>
        </g>
    </g>
</svg>
